<?xml version="1.0" standalone="no"?>
<!DOCTYPE svg PUBLIC "-//W3C//DTD SVG 20010904//EN"
 "http://www.w3.org/TR/2001/REC-SVG-20010904/DTD/svg10.dtd">
<svg version="1.0" xmlns="http://www.w3.org/2000/svg"
 width="1024.000000pt" height="1024.000000pt" viewBox="0 0 1024.000000 1024.000000"
 preserveAspectRatio="xMidYMid meet">

<g transform="translate(0.000000,1024.000000) scale(0.100000,-0.100000)"
fill="#000000" stroke="none">
<path d="M4895 9640 c-650 -42 -1221 -203 -1774 -500 -926 -498 -1632 -1328
-1993 -2345 -100 -281 -168 -572 -214 -915 -31 -239 -44 -725 -25 -937 13
-142 42 -298 69 -371 16 -44 22 -49 102 -89 116 -58 420 -155 420 -134 0 3
-11 40 -24 81 -51 160 -107 453 -125 660 -16 169 -13 543 4 719 94 932 535
1829 1197 2432 608 554 1359 897 2163 989 352 40 896 12 1267 -65 926 -194
1730 -724 2300 -1518 224 -312 410 -690 522 -1061 72 -235 43 -363 -129 -568
-205 -244 -572 -438 -1058 -558 -388 -95 -927 -160 -1337 -160 -223 0 -348 11
-585 52 -279 47 -438 35 -662 -51 -102 -40 -211 -105 -434 -261 -423 -296
-692 -441 -1099 -593 -388 -145 -687 -216 -1068 -253 -223 -22 -578 -14 -775
16 -358 54 -681 176 -837 317 l-50 45 0 -109 c1 -262 95 -426 303 -528 112
-54 199 -74 327 -76 l95 0 -45 -21 c-68 -30 -177 -50 -233 -43 -56 8 -56 14
-9 -105 169 -434 457 -904 779 -1270 724 -824 1647 -1310 2728 -1436 210 -25
690 -25 900 0 519 61 940 184 1387 407 264 131 447 245 688 427 325 246 646
575 879 901 464 648 752 1409 826 2185 28 293 20 682 -21 1006 -117 932 -530
1792 -1184 2464 -572 588 -1298 991 -2109 1170 -358 80 -826 118 -1166 96z
m4070 -4015 c18 -494 -74 -1055 -255 -1542 -58 -156 -191 -435 -276 -580 -122
-208 -307 -467 -342 -477 -187 -54 -269 -82 -437 -149 -110 -43 -203 -84 -206
-89 -8 -13 -19 81 -19 168 l0 70 58 18 c76 24 106 40 153 83 38 35 44 37 113
38 83 1 122 19 132 62 6 21 2 31 -20 50 -15 13 -36 23 -46 23 -16 0 -18 5 -13
34 8 53 -34 93 -116 110 -36 7 -60 16 -53 20 39 24 -11 119 -86 163 -43 26
-56 28 -147 28 -88 0 -105 -3 -145 -25 -27 -15 -51 -38 -60 -57 -12 -24 -23
-32 -51 -37 -43 -7 -82 -45 -77 -78 2 -18 14 -26 53 -39 l50 -16 -55 -7 c-100
-13 -200 -79 -200 -132 0 -60 41 -84 143 -84 53 0 66 -4 126 -44 36 -24 92
-57 123 -72 l58 -28 -7 -116 c-11 -209 6 -179 -186 -334 l-169 -136 -59 0 -59
0 0 145 0 145 -285 0 -285 0 0 215 0 215 -60 0 -60 0 0 -205 0 -205 -100 0
-100 0 0 -30 0 -30 -85 0 -85 0 0 -80 0 -80 -75 0 -75 0 0 360 0 360 -360 0
-360 0 0 -222 c0 -196 -9 -519 -15 -525 -1 -2 -138 -29 -304 -60 l-303 -57
-55 29 c-30 17 -57 33 -59 36 -2 4 -9 87 -15 184 -9 142 -9 179 1 185 7 4 49
13 94 20 82 12 135 35 120 50 -5 5 -37 10 -70 12 l-62 3 27 33 c27 32 28 32
82 22 107 -21 207 10 237 74 37 76 -62 171 -200 191 -43 6 -48 10 -48 32 0 17
-15 41 -42 68 -46 45 -104 65 -192 65 -103 0 -204 -61 -209 -126 -2 -32 -17
-42 -63 -43 -103 -3 -214 -75 -214 -141 0 -61 84 -110 190 -110 23 0 36 -10
66 -51 29 -40 53 -59 108 -85 39 -19 75 -34 82 -34 11 0 10 -20 -5 -188 l-6
-73 -95 94 c-95 94 -95 94 -205 132 -184 64 -211 82 -403 269 l-173 169 -117
-13 c-64 -8 -133 -13 -152 -12 -19 1 -106 26 -193 56 l-159 53 -91 -30 c-80
-27 -107 -31 -202 -31 -118 -1 -162 12 -248 71 -35 24 -111 110 -119 134 -2 6
-36 6 -98 -1 -105 -13 -198 0 -282 38 l-43 20 84 1 c116 1 370 55 508 108 7 3
2 -15 -13 -42 -75 -134 39 -246 236 -232 156 10 233 46 710 326 325 191 560
261 875 261 183 0 308 -18 485 -70 293 -85 413 -94 529 -38 86 41 171 158 171
234 0 34 -24 59 -110 117 -77 52 -127 160 -116 250 21 155 114 266 267 317 52
18 81 21 155 18 114 -5 181 -35 253 -113 97 -107 122 -240 77 -412 -45 -175
-32 -221 61 -230 109 -11 215 46 438 233 165 139 354 282 459 347 175 109 390
195 581 234 147 29 435 25 645 -10 91 -15 181 -30 201 -33 83 -12 242 48 299
113 30 34 64 129 58 160 -2 10 -25 34 -51 53 l-47 35 70 6 c261 25 428 150
460 345 7 41 4 124 -4 124 0 0 -30 -9 -66 -20 -86 -26 -90 -25 -44 9 92 66
200 212 235 315 l14 39 6 -59 c4 -32 10 -149 14 -259z m-1435 -2389 c0 -6 -92
-66 -102 -66 -4 0 -8 16 -8 35 l0 35 55 0 c30 0 55 -2 55 -4z m-155 -103 l-6
-43 -52 27 c-29 14 -63 33 -77 42 -24 16 -24 16 34 22 40 5 65 13 80 28 l21
22 3 -27 c2 -16 1 -47 -3 -71z m235 45 c9 3 5 -7 -10 -23 -27 -29 -84 -59
-137 -70 -31 -6 -33 -5 -33 23 0 26 5 31 33 36 17 4 43 15 56 25 17 13 32 17
50 11 14 -4 33 -5 41 -2z m-2490 -158 l0 -70 -35 0 -35 0 0 70 0 70 35 0 35 0
0 -70z m150 0 l0 -70 -35 0 -35 0 0 70 0 70 35 0 35 0 0 -70z m150 -1 l0 -70
-31 3 -31 4 0 62 c1 34 1 64 1 67 1 3 15 5 31 5 l30 0 0 -71z m158 4 l-3 -68
-32 -3 -33 -3 0 70 0 71 35 0 36 0 -3 -67z m-1449 1 c5 -5 1 -157 -4 -163 -8
-8 -132 58 -158 84 l-28 29 48 12 c26 7 55 21 63 32 11 15 22 19 45 15 17 -3
32 -7 34 -9z m147 -14 c19 0 34 -3 34 -6 0 -15 -93 -114 -106 -114 -11 0 -14
16 -14 70 l0 70 26 -10 c14 -6 41 -10 60 -10z m844 -200 l0 -70 -32 0 -33 0 1
63 c1 34 2 64 3 67 0 3 15 6 31 7 l30 2 0 -69z m150 -5 l0 -65 -32 0 -33 0 0
65 0 65 33 0 32 0 0 -65z m155 0 l0 -65 -32 0 -33 0 0 65 0 65 33 0 32 0 0
-65z m155 0 l0 -65 -35 0 -35 0 0 65 0 65 35 0 35 0 0 -65z m-460 -215 l0 -70
-35 0 -35 0 0 63 c0 35 3 67 7 70 3 4 19 7 35 7 l28 0 0 -70z m150 0 l0 -70
-29 0 c-29 0 -29 1 -33 66 -1 36 -1 68 1 70 2 2 17 4 33 4 l28 0 0 -70z m158
-3 l3 -67 -36 0 -35 0 0 71 0 70 33 -4 32 -3 3 -67z m150 0 l3 -67 -36 0 -35
0 0 68 0 67 32 -1 33 -1 3 -66z m922 -87 l0 -80 -90 0 -90 0 0 80 0 80 90 0
90 0 0 -80z m215 58 c-1 -13 -3 -49 -4 -80 l-1 -58 -70 0 -70 0 0 80 0 80 74
0 c70 0 73 -1 71 -22z"/>
<path d="M5182 4621 c-109 -38 -183 -128 -183 -223 0 -61 20 -120 54 -156 12
-13 51 -40 86 -60 36 -19 84 -54 108 -77 38 -37 43 -47 43 -86 0 -24 -4 -59
-9 -77 -25 -85 86 6 173 143 90 142 119 284 80 398 -17 51 -84 120 -139 143
-47 19 -149 17 -213 -5z"/>
<path d="M3406 8434 c-185 -45 -342 -199 -401 -394 -25 -83 -30 -259 -11 -350
73 -345 408 -529 754 -414 301 99 453 414 366 759 -49 190 -211 349 -409 400
-73 19 -220 18 -299 -1z m296 -259 c46 -33 101 -115 120 -180 7 -22 12 -92 12
-155 0 -134 -20 -204 -78 -275 -49 -59 -108 -85 -195 -85 -118 0 -196 51 -247
162 -28 60 -29 70 -29 203 0 132 2 143 28 200 34 72 78 121 132 146 32 16 58
19 127 17 78 -3 91 -6 130 -33z"/>
<path d="M4220 8310 l0 -120 160 0 160 0 0 -460 0 -460 140 0 140 0 0 460 0
460 160 0 160 0 0 120 0 120 -460 0 -460 0 0 -120z"/>
<path d="M5350 7850 l0 -580 380 0 380 0 0 120 0 120 -240 0 -240 0 0 115 0
115 200 0 200 0 0 120 0 120 -200 0 -200 0 0 105 0 105 220 0 220 0 0 120 0
120 -360 0 -360 0 0 -580z"/>
<path d="M6340 7850 l0 -580 140 0 140 0 0 183 0 183 44 43 44 43 34 -53 c19
-30 81 -132 138 -226 l105 -173 167 0 167 0 -210 336 -209 336 181 231 c100
128 186 238 192 245 7 9 -25 12 -156 12 l-165 0 -149 -212 c-83 -117 -156
-223 -164 -235 -8 -13 -16 -23 -19 -23 -3 0 -4 106 -2 235 l3 235 -141 0 -140
0 0 -580z"/>
<path d="M3769 6344 c-244 -278 -454 -517 -466 -532 l-22 -26 -171 114 c-99
66 -174 110 -178 104 -6 -9 -144 -126 -642 -544 -74 -62 -240 -201 -368 -308
-127 -107 -230 -197 -228 -200 3 -2 128 59 278 136 150 76 418 212 595 302
l323 162 169 -73 169 -73 -18 -46 c-10 -25 -55 -137 -99 -249 -45 -112 -80
-205 -78 -208 5 -4 142 135 427 432 130 135 135 139 138 110 1 -16 -4 -203
-12 -415 -8 -212 -12 -387 -10 -389 1 -2 17 5 35 15 29 17 61 85 331 684 362
806 403 896 414 893 5 -1 132 -49 283 -108 l273 -106 176 56 175 57 131 -129
c72 -70 219 -215 326 -321 l195 -192 125 -10 c69 -5 171 -10 227 -10 l103 0
-55 157 c-30 86 -54 157 -52 159 1 1 85 -67 187 -152 l185 -153 103 -1 c56 0
102 2 102 5 0 3 -38 85 -84 182 -135 287 -146 272 87 120 406 -263 429 -277
451 -272 12 2 50 9 86 15 385 65 787 218 1020 390 67 50 190 171 190 188 0 5
-10 13 -22 19 -13 6 -182 106 -377 222 -195 116 -359 210 -365 207 -6 -2 -49
-35 -96 -73 -221 -178 -508 -403 -514 -403 -4 0 -118 69 -254 153 -136 85
-257 159 -270 166 -21 11 -45 -6 -349 -249 -180 -143 -330 -259 -334 -258 -4
2 -78 80 -165 173 -88 94 -231 241 -319 328 -140 139 -162 157 -185 152 -14
-3 -100 -28 -191 -56 l-165 -51 -200 108 c-109 59 -281 151 -382 205 -101 55
-184 99 -186 99 -2 0 -203 -228 -447 -506z"/>
</g>
</svg>
